<svg xmlns="http://www.w3.org/2000/svg" xmlns:xlink="http://www.w3.org/1999/xlink" width="250" zoomAndPan="magnify" viewBox="0 0 187.5 112.499997" height="150" preserveAspectRatio="xMidYMid meet" version="1.0"><defs><g/><clipPath id="1478eeaa01"><path d="M 54.855469 40 L 58 40 L 58 43 L 54.855469 43 Z M 54.855469 40 " clip-rule="nonzero"/></clipPath><clipPath id="ffbb85c684"><path d="M 95 4.554688 L 132.714844 4.554688 L 132.714844 77.921875 L 95 77.921875 Z M 95 4.554688 " clip-rule="nonzero"/></clipPath></defs><path fill="#f75c03" d="M 60.648438 34.847656 L 62.742188 36.925781 L 88.425781 11.386719 L 86.332031 9.304688 Z M 62.742188 38.726562 C 62.550781 38.726562 62.359375 38.652344 62.214844 38.507812 L 59.0625 35.371094 C 58.769531 35.082031 58.769531 34.609375 59.0625 34.320312 L 85.800781 7.726562 C 85.941406 7.585938 86.132812 7.507812 86.332031 7.507812 C 86.527344 7.507812 86.71875 7.585938 86.859375 7.726562 L 90.011719 10.859375 C 90.304688 11.152344 90.304688 11.621094 90.011719 11.914062 L 63.269531 38.507812 C 63.125 38.652344 62.933594 38.726562 62.742188 38.726562 " fill-opacity="1" fill-rule="nonzero"/><path fill="#f75c03" d="M 56.492188 41.808594 C 56.296875 41.808594 56.105469 41.730469 55.960938 41.589844 C 55.734375 41.363281 55.679688 41.019531 55.820312 40.734375 L 58.921875 34.515625 C 59.105469 34.144531 59.550781 33.996094 59.921875 34.179688 C 60.292969 34.363281 60.445312 34.808594 60.261719 35.175781 L 58.148438 39.414062 L 62.410156 37.3125 C 62.78125 37.128906 63.230469 37.28125 63.414062 37.648438 C 63.597656 38.019531 63.445312 38.464844 63.074219 38.648438 L 56.824219 41.730469 C 56.71875 41.78125 56.601562 41.808594 56.492188 41.808594 " fill-opacity="1" fill-rule="nonzero"/><path fill="#f75c03" d="M 87.386719 8.253906 L 89.480469 10.335938 L 91.058594 8.765625 C 91.148438 8.675781 91.164062 8.574219 91.164062 8.519531 C 91.164062 8.464844 91.148438 8.363281 91.058594 8.273438 L 89.460938 6.683594 C 89.371094 6.59375 89.269531 6.582031 89.214844 6.582031 C 89.160156 6.582031 89.054688 6.59375 88.964844 6.683594 Z M 89.480469 12.132812 C 89.285156 12.132812 89.09375 12.054688 88.953125 11.914062 L 85.800781 8.777344 C 85.507812 8.488281 85.507812 8.015625 85.800781 7.726562 L 87.90625 5.632812 C 88.257812 5.285156 88.722656 5.09375 89.214844 5.09375 C 89.707031 5.09375 90.171875 5.285156 90.519531 5.632812 L 92.117188 7.21875 C 92.46875 7.566406 92.660156 8.027344 92.660156 8.519531 C 92.660156 9.011719 92.46875 9.472656 92.117188 9.820312 L 90.011719 11.914062 C 89.871094 12.054688 89.679688 12.132812 89.480469 12.132812 " fill-opacity="1" fill-rule="nonzero"/><g clip-path="url(#1478eeaa01)"><path fill="#f75c03" d="M 55.679688 42.613281 C 55.488281 42.613281 55.296875 42.542969 55.152344 42.394531 C 54.859375 42.105469 54.859375 41.632812 55.152344 41.34375 L 55.960938 40.535156 C 56.253906 40.246094 56.726562 40.246094 57.019531 40.535156 C 57.3125 40.828125 57.3125 41.296875 57.019531 41.589844 L 56.210938 42.394531 C 56.0625 42.542969 55.871094 42.613281 55.679688 42.613281 " fill-opacity="1" fill-rule="nonzero"/></g><g clip-path="url(#ffbb85c684)"><path fill="#f75c03" d="M 96.578125 7.097656 L 96.578125 75.382812 L 130.910156 41.238281 Z M 95.828125 77.921875 C 95.730469 77.921875 95.636719 77.90625 95.542969 77.867188 C 95.261719 77.75 95.082031 77.480469 95.082031 77.179688 L 95.082031 5.300781 C 95.082031 5 95.261719 4.726562 95.542969 4.613281 C 95.824219 4.496094 96.144531 4.5625 96.359375 4.773438 L 132.496094 40.714844 C 132.789062 41.003906 132.789062 41.476562 132.496094 41.765625 L 96.359375 77.703125 C 96.214844 77.847656 96.023438 77.921875 95.828125 77.921875 " fill-opacity="1" fill-rule="nonzero"/></g><path fill="#f75c03" d="M 119.332031 34.53125 C 119.140625 34.53125 118.949219 34.457031 118.800781 34.3125 L 117.484375 33 C 117.191406 32.710938 117.191406 32.238281 117.484375 31.949219 C 117.777344 31.660156 118.25 31.660156 118.542969 31.949219 L 119.859375 33.257812 C 120.152344 33.550781 120.152344 34.023438 119.859375 34.3125 C 119.714844 34.457031 119.523438 34.53125 119.332031 34.53125 " fill-opacity="1" fill-rule="nonzero"/><path fill="#f75c03" d="M 115.1875 30.410156 C 114.996094 30.410156 114.804688 30.339844 114.660156 30.191406 L 102.019531 17.621094 C 101.730469 17.332031 101.730469 16.863281 102.019531 16.570312 C 102.3125 16.28125 102.785156 16.28125 103.078125 16.570312 L 115.71875 29.140625 C 116.011719 29.429688 116.011719 29.902344 115.71875 30.191406 C 115.574219 30.339844 115.378906 30.410156 115.1875 30.410156 " fill-opacity="1" fill-rule="nonzero"/><path fill="#f75c03" d="M 105.511719 28.550781 L 105.511719 53.929688 L 118.273438 41.238281 Z M 104.765625 56.472656 C 104.667969 56.472656 104.570312 56.453125 104.476562 56.414062 C 104.199219 56.300781 104.015625 56.027344 104.015625 55.726562 L 104.015625 26.753906 C 104.015625 26.449219 104.199219 26.179688 104.476562 26.066406 C 104.757812 25.949219 105.078125 26.011719 105.292969 26.226562 L 119.859375 40.714844 C 120.152344 41.003906 120.152344 41.476562 119.859375 41.765625 L 105.292969 56.253906 C 105.148438 56.394531 104.957031 56.472656 104.765625 56.472656 " fill-opacity="1" fill-rule="nonzero"/><path fill="#f75c03" d="M 126.519531 47.402344 C 126.328125 47.402344 126.136719 47.328125 125.992188 47.183594 L 124.054688 45.257812 C 123.761719 44.964844 123.761719 44.496094 124.054688 44.203125 C 124.347656 43.914062 124.820312 43.914062 125.113281 44.203125 L 127.050781 46.128906 C 127.339844 46.421875 127.339844 46.890625 127.050781 47.183594 C 126.902344 47.328125 126.710938 47.402344 126.519531 47.402344 " fill-opacity="1" fill-rule="nonzero"/><path fill="#f75c03" d="M 121.074219 52.816406 C 120.882812 52.816406 120.691406 52.742188 120.546875 52.597656 L 117.484375 49.554688 C 117.191406 49.265625 117.191406 48.792969 117.484375 48.503906 C 117.777344 48.210938 118.25 48.210938 118.542969 48.503906 L 121.605469 51.546875 C 121.894531 51.835938 121.894531 52.308594 121.605469 52.597656 C 121.457031 52.742188 121.265625 52.816406 121.074219 52.816406 " fill-opacity="1" fill-rule="nonzero"/><path fill="#f75c03" d="M 115.628906 58.234375 C 115.4375 58.234375 115.246094 58.160156 115.097656 58.015625 L 113.160156 56.089844 C 112.867188 55.796875 112.867188 55.328125 113.160156 55.035156 C 113.453125 54.746094 113.925781 54.746094 114.21875 55.035156 L 116.15625 56.964844 C 116.449219 57.253906 116.449219 57.726562 116.15625 58.015625 C 116.011719 58.160156 115.820312 58.234375 115.628906 58.234375 " fill-opacity="1" fill-rule="nonzero"/><path fill="#f75c03" d="M 110.179688 63.648438 C 109.988281 63.648438 109.796875 63.578125 109.652344 63.429688 L 106.589844 60.386719 C 106.296875 60.097656 106.296875 59.625 106.589844 59.335938 C 106.882812 59.042969 107.355469 59.042969 107.648438 59.335938 L 110.710938 62.378906 C 111.003906 62.671875 111.003906 63.140625 110.710938 63.429688 C 110.5625 63.578125 110.371094 63.648438 110.179688 63.648438 " fill-opacity="1" fill-rule="nonzero"/><path fill="#f75c03" d="M 104.734375 69.066406 C 104.542969 69.066406 104.351562 68.992188 104.207031 68.847656 L 102.269531 66.921875 C 101.976562 66.632812 101.976562 66.160156 102.269531 65.871094 C 102.5625 65.578125 103.035156 65.578125 103.328125 65.871094 L 105.261719 67.796875 C 105.554688 68.085938 105.554688 68.558594 105.261719 68.847656 C 105.117188 68.992188 104.925781 69.066406 104.734375 69.066406 " fill-opacity="1" fill-rule="nonzero"/><path fill="#f75c03" d="M 92.621094 71.269531 L 70.914062 71.269531 C 70.5 71.269531 70.164062 70.933594 70.164062 70.523438 L 70.164062 36.734375 C 70.164062 36.324219 70.5 35.992188 70.914062 35.992188 C 71.328125 35.992188 71.660156 36.324219 71.660156 36.734375 L 71.660156 69.78125 L 92.621094 69.78125 C 93.035156 69.78125 93.371094 70.113281 93.371094 70.523438 C 93.371094 70.933594 93.035156 71.269531 92.621094 71.269531 " fill-opacity="1" fill-rule="nonzero"/><path fill="#f75c03" d="M 92.621094 71.269531 L 87.835938 71.269531 C 87.421875 71.269531 87.085938 70.933594 87.085938 70.523438 L 87.085938 48.265625 C 87.085938 47.851562 87.421875 47.519531 87.835938 47.519531 L 92.621094 47.519531 C 93.035156 47.519531 93.371094 47.851562 93.371094 48.265625 C 93.371094 48.675781 93.035156 49.007812 92.621094 49.007812 L 88.585938 49.007812 L 88.585938 69.78125 L 92.621094 69.78125 C 93.035156 69.78125 93.371094 70.113281 93.371094 70.523438 C 93.371094 70.933594 93.035156 71.269531 92.621094 71.269531 " fill-opacity="1" fill-rule="nonzero"/><path fill="#f75c03" d="M 62.675781 45.671875 C 62.480469 45.671875 62.289062 45.601562 62.144531 45.457031 C 61.851562 45.164062 61.851562 44.691406 62.144531 44.402344 L 92.09375 14.621094 C 92.386719 14.328125 92.859375 14.328125 93.152344 14.621094 C 93.441406 14.910156 93.441406 15.382812 93.152344 15.671875 L 63.203125 45.457031 C 63.054688 45.601562 62.863281 45.671875 62.675781 45.671875 " fill-opacity="1" fill-rule="nonzero"/><path fill="#f75c03" d="M 75.886719 37.644531 C 75.695312 37.644531 75.503906 37.574219 75.355469 37.429688 C 75.0625 37.136719 75.0625 36.667969 75.355469 36.375 L 85.800781 25.988281 C 86.09375 25.699219 86.566406 25.699219 86.859375 25.988281 C 87.152344 26.277344 87.152344 26.75 86.859375 27.039062 L 76.414062 37.429688 C 76.269531 37.574219 76.078125 37.644531 75.886719 37.644531 " fill-opacity="1" fill-rule="nonzero"/><path fill="#f75c03" d="M 60.820312 71.269531 L 59.617188 71.269531 C 59.203125 71.269531 58.867188 70.933594 58.867188 70.523438 C 58.867188 70.113281 59.203125 69.78125 59.617188 69.78125 L 60.820312 69.78125 C 61.234375 69.78125 61.570312 70.113281 61.570312 70.523438 C 61.570312 70.933594 61.234375 71.269531 60.820312 71.269531 " fill-opacity="1" fill-rule="nonzero"/><path fill="#f75c03" d="M 70.914062 71.269531 L 64.027344 71.269531 C 63.617188 71.269531 63.28125 70.933594 63.28125 70.523438 C 63.28125 70.113281 63.617188 69.78125 64.027344 69.78125 L 70.914062 69.78125 C 71.328125 69.78125 71.660156 70.113281 71.660156 70.523438 C 71.660156 70.933594 71.328125 71.269531 70.914062 71.269531 " fill-opacity="1" fill-rule="nonzero"/><g fill="#f75c03" fill-opacity="1"><g transform="translate(11.671536, 102.42929)"><g><path d="M 3.421875 0 L 0.734375 0 L 8.484375 -21.109375 L 11.125 -21.109375 L 18.875 0 L 16.203125 0 L 14.078125 -5.96875 L 5.546875 -5.96875 Z M 6.34375 -8.25 L 13.265625 -8.25 L 9.890625 -17.765625 L 9.734375 -17.765625 Z M 6.34375 -8.25 "/></g></g></g><g fill="#f75c03" fill-opacity="1"><g transform="translate(31.294496, 102.42929)"><g><path d="M 2.5625 0 L 2.5625 -21.109375 L 9.6875 -21.109375 C 11.332031 -21.109375 12.679688 -20.828125 13.734375 -20.265625 C 14.796875 -19.703125 15.582031 -18.929688 16.09375 -17.953125 C 16.601562 -16.984375 16.859375 -15.875 16.859375 -14.625 C 16.859375 -13.226562 16.535156 -12.007812 15.890625 -10.96875 C 15.253906 -9.925781 14.257812 -9.175781 12.90625 -8.71875 L 17.6875 0 L 14.71875 0 L 10.265625 -8.25 C 10.085938 -8.25 9.910156 -8.25 9.734375 -8.25 L 5.109375 -8.25 L 5.109375 0 Z M 5.109375 -10.546875 L 9.640625 -10.546875 C 11.328125 -10.546875 12.53125 -10.910156 13.25 -11.640625 C 13.976562 -12.367188 14.34375 -13.363281 14.34375 -14.625 C 14.34375 -15.894531 13.976562 -16.910156 13.25 -17.671875 C 12.53125 -18.441406 11.316406 -18.828125 9.609375 -18.828125 L 5.109375 -18.828125 Z M 5.109375 -10.546875 "/></g></g></g><g fill="#f75c03" fill-opacity="1"><g transform="translate(49.845616, 102.42929)"><g><path d="M 19.53125 -14.5 L 16.984375 -14.5 C 16.773438 -15.476562 16.378906 -16.300781 15.796875 -16.96875 C 15.210938 -17.632812 14.507812 -18.140625 13.6875 -18.484375 C 12.863281 -18.828125 11.984375 -19 11.046875 -19 C 9.765625 -19 8.609375 -18.675781 7.578125 -18.03125 C 6.546875 -17.382812 5.722656 -16.429688 5.109375 -15.171875 C 4.503906 -13.921875 4.203125 -12.378906 4.203125 -10.546875 C 4.203125 -8.722656 4.503906 -7.179688 5.109375 -5.921875 C 5.722656 -4.671875 6.546875 -3.722656 7.578125 -3.078125 C 8.609375 -2.429688 9.765625 -2.109375 11.046875 -2.109375 C 11.984375 -2.109375 12.863281 -2.273438 13.6875 -2.609375 C 14.507812 -2.953125 15.210938 -3.457031 15.796875 -4.125 C 16.378906 -4.789062 16.773438 -5.613281 16.984375 -6.59375 L 19.53125 -6.59375 C 19.269531 -5.15625 18.738281 -3.921875 17.9375 -2.890625 C 17.132812 -1.859375 16.140625 -1.070312 14.953125 -0.53125 C 13.765625 0.0078125 12.460938 0.28125 11.046875 0.28125 C 9.242188 0.28125 7.640625 -0.15625 6.234375 -1.03125 C 4.835938 -1.90625 3.738281 -3.15625 2.9375 -4.78125 C 2.132812 -6.40625 1.734375 -8.328125 1.734375 -10.546875 C 1.734375 -12.773438 2.132812 -14.695312 2.9375 -16.3125 C 3.738281 -17.9375 4.835938 -19.1875 6.234375 -20.0625 C 7.640625 -20.945312 9.242188 -21.390625 11.046875 -21.390625 C 12.460938 -21.390625 13.765625 -21.113281 14.953125 -20.5625 C 16.140625 -20.019531 17.132812 -19.234375 17.9375 -18.203125 C 18.738281 -17.179688 19.269531 -15.945312 19.53125 -14.5 Z M 19.53125 -14.5 "/></g></g></g><g fill="#f75c03" fill-opacity="1"><g transform="translate(70.952669, 102.42929)"><g><path d="M 2.5625 0 L 2.5625 -21.109375 L 5.109375 -21.109375 L 5.109375 -11.703125 L 16.359375 -11.703125 L 16.359375 -21.109375 L 18.921875 -21.109375 L 18.921875 0 L 16.359375 0 L 16.359375 -9.4375 L 5.109375 -9.4375 L 5.109375 0 Z M 2.5625 0 "/></g></g></g><g fill="#f75c03" fill-opacity="1"><g transform="translate(92.430744, 102.42929)"><g><path d="M 5.109375 -21.109375 L 5.109375 0 L 2.5625 0 L 2.5625 -21.109375 Z M 5.109375 -21.109375 "/></g></g></g><g fill="#f75c03" fill-opacity="1"><g transform="translate(100.098541, 102.42929)"><g><path d="M 2.5625 0 L 2.5625 -21.109375 L 5.109375 -21.109375 L 5.109375 -10.640625 L 5.359375 -10.640625 L 14.84375 -21.109375 L 18.171875 -21.109375 L 9.3125 -11.578125 L 18.171875 0 L 15.078125 0 L 7.75 -9.8125 L 5.109375 -6.84375 L 5.109375 0 Z M 2.5625 0 "/></g></g></g><g fill="#f75c03" fill-opacity="1"><g transform="translate(119.020681, 102.42929)"><g><path d="M 3.421875 0 L 0.734375 0 L 8.484375 -21.109375 L 11.125 -21.109375 L 18.875 0 L 16.203125 0 L 14.078125 -5.96875 L 5.546875 -5.96875 Z M 6.34375 -8.25 L 13.265625 -8.25 L 9.890625 -17.765625 L 9.734375 -17.765625 Z M 6.34375 -8.25 "/></g></g></g><g fill="#f75c03" fill-opacity="1"><g transform="translate(138.643638, 102.42929)"><g><path d="M 2.5625 0 L 2.5625 -21.109375 L 9.6875 -21.109375 C 11.332031 -21.109375 12.679688 -20.828125 13.734375 -20.265625 C 14.796875 -19.703125 15.582031 -18.929688 16.09375 -17.953125 C 16.601562 -16.984375 16.859375 -15.875 16.859375 -14.625 C 16.859375 -13.226562 16.535156 -12.007812 15.890625 -10.96875 C 15.253906 -9.925781 14.257812 -9.175781 12.90625 -8.71875 L 17.6875 0 L 14.71875 0 L 10.265625 -8.25 C 10.085938 -8.25 9.910156 -8.25 9.734375 -8.25 L 5.109375 -8.25 L 5.109375 0 Z M 5.109375 -10.546875 L 9.640625 -10.546875 C 11.328125 -10.546875 12.53125 -10.910156 13.25 -11.640625 C 13.976562 -12.367188 14.34375 -13.363281 14.34375 -14.625 C 14.34375 -15.894531 13.976562 -16.910156 13.25 -17.671875 C 12.53125 -18.441406 11.316406 -18.828125 9.609375 -18.828125 L 5.109375 -18.828125 Z M 5.109375 -10.546875 "/></g></g></g><g fill="#f75c03" fill-opacity="1"><g transform="translate(157.194751, 102.42929)"><g><path d="M 1.40625 -18.828125 L 1.40625 -21.109375 L 17.234375 -21.109375 L 17.234375 -18.828125 L 10.59375 -18.828125 L 10.59375 0 L 8.03125 0 L 8.03125 -18.828125 Z M 1.40625 -18.828125 "/></g></g></g></svg>