<svg xmlns="http://www.w3.org/2000/svg" xmlns:xlink="http://www.w3.org/1999/xlink" width="900" zoomAndPan="magnify" viewBox="0 0 675 112.499997" height="150" preserveAspectRatio="xMidYMid meet" version="1.0"><defs><g/><clipPath id="3c8916fdff"><path d="M 19.414062 11.199219 L 107.523438 11.199219 L 107.523438 100.800781 L 19.414062 100.800781 Z M 19.414062 11.199219 " clip-rule="nonzero"/></clipPath></defs><g fill="#ffffff" fill-opacity="1"><g transform="translate(128.55137, 99.021436)"><g><path d="M 9.8125 0 L 2.125 0 L 24.34375 -60.515625 L 31.921875 -60.515625 L 54.140625 0 L 46.453125 0 L 40.375 -17.140625 L 15.90625 -17.140625 Z M 18.203125 -23.640625 L 38.0625 -23.640625 L 28.375 -50.953125 L 27.890625 -50.953125 Z M 18.203125 -23.640625 "/></g></g></g><g fill="#ffffff" fill-opacity="1"><g transform="translate(193.142328, 99.021436)"><g><path d="M 7.328125 0 L 7.328125 -60.515625 L 27.78125 -60.515625 C 32.507812 -60.515625 36.390625 -59.710938 39.421875 -58.109375 C 42.453125 -56.503906 44.695312 -54.300781 46.15625 -51.5 C 47.613281 -48.707031 48.34375 -45.53125 48.34375 -41.96875 C 48.34375 -37.945312 47.421875 -34.441406 45.578125 -31.453125 C 43.742188 -28.472656 40.894531 -26.320312 37.03125 -25 L 50.71875 0 L 42.203125 0 L 29.4375 -23.671875 C 28.9375 -23.648438 28.421875 -23.640625 27.890625 -23.640625 L 14.65625 -23.640625 L 14.65625 0 Z M 14.65625 -30.265625 L 27.65625 -30.265625 C 32.507812 -30.265625 35.96875 -31.304688 38.03125 -33.390625 C 40.101562 -35.484375 41.140625 -38.34375 41.140625 -41.96875 C 41.140625 -45.613281 40.097656 -48.53125 38.015625 -50.71875 C 35.941406 -52.914062 32.453125 -54.015625 27.546875 -54.015625 L 14.65625 -54.015625 Z M 14.65625 -30.265625 "/></g></g></g><g fill="#ffffff" fill-opacity="1"><g transform="translate(254.659833, 99.021436)"><g><path d="M 56.03125 -41.609375 L 48.703125 -41.609375 C 48.109375 -44.410156 46.972656 -46.765625 45.296875 -48.671875 C 43.628906 -50.585938 41.613281 -52.035156 39.25 -53.015625 C 36.882812 -54.003906 34.363281 -54.5 31.6875 -54.5 C 28.019531 -54.5 24.703125 -53.570312 21.734375 -51.71875 C 18.765625 -49.863281 16.410156 -47.132812 14.671875 -43.53125 C 12.929688 -39.925781 12.0625 -35.503906 12.0625 -30.265625 C 12.0625 -25.023438 12.929688 -20.597656 14.671875 -16.984375 C 16.410156 -13.378906 18.765625 -10.648438 21.734375 -8.796875 C 24.703125 -6.953125 28.019531 -6.03125 31.6875 -6.03125 C 34.363281 -6.03125 36.882812 -6.519531 39.25 -7.5 C 41.613281 -8.488281 43.628906 -9.9375 45.296875 -11.84375 C 46.972656 -13.757812 48.109375 -16.113281 48.703125 -18.90625 L 56.03125 -18.90625 C 55.28125 -14.769531 53.753906 -11.226562 51.453125 -8.28125 C 49.148438 -5.34375 46.289062 -3.085938 42.875 -1.515625 C 39.46875 0.046875 35.738281 0.828125 31.6875 0.828125 C 26.519531 0.828125 21.925781 -0.429688 17.90625 -2.953125 C 13.882812 -5.472656 10.722656 -9.054688 8.421875 -13.703125 C 6.117188 -18.359375 4.96875 -23.878906 4.96875 -30.265625 C 4.96875 -36.648438 6.117188 -42.164062 8.421875 -46.8125 C 10.722656 -51.457031 13.882812 -55.039062 17.90625 -57.5625 C 21.925781 -60.082031 26.519531 -61.34375 31.6875 -61.34375 C 35.738281 -61.34375 39.46875 -60.5625 42.875 -59 C 46.289062 -57.4375 49.148438 -55.179688 51.453125 -52.234375 C 53.753906 -49.285156 55.28125 -45.742188 56.03125 -41.609375 Z M 56.03125 -41.609375 "/></g></g></g><g fill="#ffffff" fill-opacity="1"><g transform="translate(323.506348, 99.021436)"><g><path d="M 7.328125 0 L 7.328125 -60.515625 L 14.65625 -60.515625 L 14.65625 -33.578125 L 46.921875 -33.578125 L 46.921875 -60.515625 L 54.265625 -60.515625 L 54.265625 0 L 46.921875 0 L 46.921875 -27.0625 L 14.65625 -27.0625 L 14.65625 0 Z M 7.328125 0 "/></g></g></g><g fill="#ffffff" fill-opacity="1"><g transform="translate(393.41676, 99.021436)"><g><path d="M 14.65625 -60.515625 L 14.65625 0 L 7.328125 0 L 7.328125 -60.515625 Z M 14.65625 -60.515625 "/></g></g></g><g fill="#ffffff" fill-opacity="1"><g transform="translate(423.726856, 99.021436)"><g><path d="M 7.328125 0 L 7.328125 -60.515625 L 14.65625 -60.515625 L 14.65625 -30.5 L 15.359375 -30.5 L 42.5625 -60.515625 L 52.125 -60.515625 L 26.71875 -33.21875 L 52.125 0 L 43.265625 0 L 22.21875 -28.140625 L 14.65625 -19.625 L 14.65625 0 Z M 7.328125 0 "/></g></g></g><g fill="#ffffff" fill-opacity="1"><g transform="translate(486.308247, 99.021436)"><g><path d="M 9.8125 0 L 2.125 0 L 24.34375 -60.515625 L 31.921875 -60.515625 L 54.140625 0 L 46.453125 0 L 40.375 -17.140625 L 15.90625 -17.140625 Z M 18.203125 -23.640625 L 38.0625 -23.640625 L 28.375 -50.953125 L 27.890625 -50.953125 Z M 18.203125 -23.640625 "/></g></g></g><g fill="#ffffff" fill-opacity="1"><g transform="translate(550.899216, 99.021436)"><g><path d="M 7.328125 0 L 7.328125 -60.515625 L 27.78125 -60.515625 C 32.507812 -60.515625 36.390625 -59.710938 39.421875 -58.109375 C 42.453125 -56.503906 44.695312 -54.300781 46.15625 -51.5 C 47.613281 -48.707031 48.34375 -45.53125 48.34375 -41.96875 C 48.34375 -37.945312 47.421875 -34.441406 45.578125 -31.453125 C 43.742188 -28.472656 40.894531 -26.320312 37.03125 -25 L 50.71875 0 L 42.203125 0 L 29.4375 -23.671875 C 28.9375 -23.648438 28.421875 -23.640625 27.890625 -23.640625 L 14.65625 -23.640625 L 14.65625 0 Z M 14.65625 -30.265625 L 27.65625 -30.265625 C 32.507812 -30.265625 35.96875 -31.304688 38.03125 -33.390625 C 40.101562 -35.484375 41.140625 -38.34375 41.140625 -41.96875 C 41.140625 -45.613281 40.097656 -48.53125 38.015625 -50.71875 C 35.941406 -52.914062 32.453125 -54.015625 27.546875 -54.015625 L 14.65625 -54.015625 Z M 14.65625 -30.265625 "/></g></g></g><g fill="#ffffff" fill-opacity="1"><g transform="translate(612.416709, 99.021436)"><g><path d="M 4.015625 -54.015625 L 4.015625 -60.515625 L 49.40625 -60.515625 L 49.40625 -54.015625 L 30.375 -54.015625 L 30.375 0 L 23.046875 0 L 23.046875 -54.015625 Z M 4.015625 -54.015625 "/></g></g></g><g clip-path="url(#3c8916fdff)"><path fill="#ffffff" d="M 60.742188 29.578125 L 25.496094 49.964844 L 25.496094 66.070312 L 60.742188 45.71875 Z M 87.449219 74.6875 L 99.371094 74.6875 L 99.371094 77.625 L 87.449219 77.625 Z M 87.449219 67.378906 L 99.371094 67.378906 L 99.371094 70.316406 L 87.449219 70.316406 Z M 87.449219 60.015625 L 99.371094 60.015625 L 99.371094 62.953125 L 87.449219 62.953125 Z M 87.449219 52.6875 L 99.371094 52.6875 L 99.371094 55.625 L 87.449219 55.625 Z M 87.449219 45.359375 L 99.371094 45.359375 L 99.371094 48.296875 L 87.449219 48.296875 Z M 87.449219 38.050781 L 99.371094 38.050781 L 99.371094 40.988281 L 87.449219 40.988281 Z M 87.449219 30.6875 L 99.371094 30.6875 L 99.371094 33.625 L 87.449219 33.625 Z M 87.449219 23.359375 L 99.371094 23.359375 L 99.371094 26.296875 L 87.449219 26.296875 Z M 56.480469 86.242188 L 62.398438 86.242188 L 62.398438 92.136719 L 56.480469 92.136719 Z M 65.167969 86.242188 L 71.082031 86.242188 L 71.082031 92.136719 L 65.167969 92.136719 Z M 71.082031 94.859375 L 71.082031 100.789062 L 65.167969 100.789062 L 65.167969 94.859375 Z M 62.398438 100.789062 L 56.480469 100.789062 L 56.480469 94.859375 L 62.398438 94.859375 Z M 66.839844 45.734375 L 78.617188 52.507812 L 78.617188 36.402344 L 66.839844 29.59375 Z M 66.839844 52.742188 L 66.839844 69.902344 L 78.617188 76.675781 L 78.617188 59.511719 Z M 60.742188 69.902344 L 60.742188 52.742188 L 25.496094 73.089844 L 25.496094 90.253906 Z M 81.675781 11.214844 L 108.234375 11.214844 L 108.234375 100.789062 L 102.140625 97.242188 L 84.714844 87.207031 L 63.78125 75.152344 L 53.296875 81.1875 L 41.375 88.085938 L 34.578125 91.992188 L 25.476562 97.242188 L 19.382812 100.789062 L 19.382812 46.46875 L 20.910156 45.59375 L 63.78125 20.835938 L 78.617188 29.398438 L 78.617188 11.214844 Z M 19.382812 100.789062 Z M 102.140625 17.289062 L 84.714844 17.289062 L 84.714844 80.203125 L 102.140625 90.234375 Z M 108.234375 100.789062 Z M 108.234375 100.789062 " fill-opacity="1" fill-rule="nonzero"/></g></svg>