<svg xmlns="http://www.w3.org/2000/svg" xmlns:xlink="http://www.w3.org/1999/xlink" width="150" zoomAndPan="magnify" viewBox="0 0 112.5 30.000001" height="40" preserveAspectRatio="xMidYMid meet" version="1.0"><defs><clipPath id="81c8b748a5"><path d="M 5 9.726562 L 108 9.726562 L 108 19.207031 L 5 19.207031 Z M 5 9.726562 " clip-rule="nonzero"/></clipPath></defs><g clip-path="url(#81c8b748a5)"><path fill="#ff4d30" d="M 107 14.601562 C 100.625 13.152344 94.167969 12.0625 87.671875 11.308594 C 81.046875 10.542969 74.390625 10.117188 67.726562 9.917969 C 61.203125 9.726562 54.675781 9.773438 48.15625 9.984375 C 41.535156 10.199219 34.921875 10.574219 28.316406 11.035156 C 21.761719 11.496094 15.210938 12.03125 8.671875 12.664062 C 7.710938 12.757812 6.75 12.847656 5.789062 12.9375 C 4.878906 13.023438 5.074219 14.382812 5.980469 14.3125 C 12.628906 13.796875 19.277344 13.285156 25.925781 12.808594 C 32.472656 12.339844 39.027344 11.945312 45.589844 11.710938 C 52.105469 11.480469 58.628906 11.394531 65.148438 11.53125 C 71.726562 11.667969 78.300781 12.050781 84.84375 12.730469 C 87.929688 13.054688 91.011719 13.445312 94.082031 13.910156 C 87.875 13.621094 81.667969 13.386719 75.457031 13.269531 C 65.066406 13.078125 54.65625 13.234375 44.300781 14.082031 C 38.460938 14.558594 32.636719 15.265625 26.859375 16.230469 C 25.980469 16.378906 26.21875 17.824219 27.105469 17.75 C 35.929688 17.023438 44.785156 16.664062 53.640625 16.65625 C 62.445312 16.648438 71.246094 16.992188 80.023438 17.675781 C 82.496094 17.867188 84.972656 18.082031 87.441406 18.324219 C 88.644531 18.445312 89.84375 18.5625 91.042969 18.691406 C 92.394531 18.835938 93.753906 18.921875 95.097656 19.089844 C 96.125 19.214844 96.433594 17.667969 95.402344 17.539062 C 94.191406 17.390625 92.992188 17.179688 91.777344 17.039062 C 90.675781 16.914062 89.574219 16.792969 88.472656 16.679688 C 86.265625 16.449219 84.054688 16.25 81.839844 16.066406 C 77.488281 15.710938 73.128906 15.453125 68.765625 15.285156 C 64.292969 15.109375 59.816406 15.019531 55.34375 15.019531 C 56.335938 14.984375 57.328125 14.953125 58.320312 14.925781 C 68.621094 14.648438 78.929688 14.929688 89.21875 15.375 C 95.023438 15.625 100.820312 15.957031 106.621094 16.265625 C 107.058594 16.289062 107.464844 16.019531 107.554688 15.59375 C 107.632812 15.214844 107.429688 14.699219 107 14.601562 " fill-opacity="1" fill-rule="nonzero"/></g></svg>